<svg xmlns="http://www.w3.org/2000/svg" height="511pt" version="1.1" viewBox="1 -41 511.99997 511" width="511pt">
<g id="surface1">
<path d="M 504.421875 267.230469 C 508.605469 267.230469 512 263.847656 512 259.652344 L 512 138.246094 C 512 129.039062 504.511719 121.542969 495.296875 121.542969 L 473.664062 121.542969 L 473.664062 77.71875 C 473.664062 68.515625 466.175781 61.015625 456.960938 61.015625 L 435.328125 61.015625 L 435.328125 17.203125 C 435.328125 7.988281 427.828125 0.5 418.625 0.5 L 231.019531 0.5 C 226.839844 0.5 223.441406 3.886719 223.441406 8.078125 C 223.441406 12.261719 226.839844 15.65625 231.019531 15.65625 L 418.625 15.65625 C 419.472656 15.65625 420.167969 16.34375 420.167969 17.203125 L 420.167969 61.015625 L 55.039062 61.015625 C 45.824219 61.015625 38.335938 68.515625 38.335938 77.71875 L 38.335938 293.339844 L 16.703125 293.339844 C 15.84375 293.339844 15.15625 292.644531 15.15625 291.796875 L 15.15625 17.203125 C 15.15625 16.34375 15.84375 15.65625 16.703125 15.65625 L 200.707031 15.65625 C 204.902344 15.65625 208.285156 12.261719 208.285156 8.078125 C 208.285156 3.886719 204.902344 0.5 200.707031 0.5 L 16.703125 0.5 C 7.488281 0.5 0 7.988281 0 17.203125 L 0 291.796875 C 0 301 7.488281 308.5 16.703125 308.5 L 38.335938 308.5 L 38.335938 352.320312 C 38.335938 361.527344 45.824219 369.023438 55.039062 369.023438 L 76.671875 369.023438 L 76.671875 412.839844 C 76.671875 422.054688 84.171875 429.542969 93.375 429.542969 L 495.296875 429.542969 C 504.511719 429.542969 512 422.054688 512 412.839844 L 512 289.964844 C 512 285.78125 508.605469 282.386719 504.421875 282.386719 C 500.238281 282.386719 496.84375 285.78125 496.84375 289.964844 L 496.84375 412.839844 C 496.84375 413.695312 496.15625 414.382812 495.296875 414.382812 L 93.375 414.382812 C 92.527344 414.382812 91.832031 413.695312 91.832031 412.839844 C 91.832031 393.1875 91.832031 245.066406 91.832031 222.820312 C 91.832031 218.636719 88.433594 215.242188 84.253906 215.242188 C 80.070312 215.242188 76.671875 218.636719 76.671875 222.820312 C 76.671875 248.898438 76.671875 327.394531 76.671875 353.867188 L 55.039062 353.867188 C 54.191406 353.867188 53.492188 353.171875 53.492188 352.320312 C 53.492188 339.039062 53.492188 88.464844 53.492188 77.71875 C 53.492188 76.871094 54.191406 76.171875 55.039062 76.171875 C 96.976562 76.171875 436.414062 76.171875 456.960938 76.171875 C 457.808594 76.171875 458.507812 76.871094 458.507812 77.71875 L 458.507812 121.542969 C 438.410156 121.542969 107.847656 121.542969 93.375 121.542969 C 84.171875 121.542969 76.671875 129.039062 76.671875 138.246094 L 76.671875 192.507812 C 76.671875 196.699219 80.070312 200.085938 84.253906 200.085938 C 88.433594 200.085938 91.832031 196.699219 91.832031 192.507812 L 91.832031 138.246094 C 91.832031 137.398438 92.527344 136.699219 93.375 136.699219 C 108.132812 136.699219 473.945312 136.699219 495.296875 136.699219 C 496.15625 136.699219 496.84375 137.398438 496.84375 138.246094 L 496.84375 259.652344 C 496.84375 263.847656 500.238281 267.230469 504.421875 267.230469 Z M 504.421875 267.230469 " style=" stroke:none;fill-rule:nonzero;fill:rgb(0%,0%,0%);fill-opacity:1;" />
</g>
</svg>